<svg width="720" height="480" viewBox="0 0 720 480" fill="none" xmlns="http://www.w3.org/2000/svg">
  <rect width="720" height="480" rx="32" fill="#081322"/>
  <rect x="60" y="60" width="600" height="360" rx="28" fill="#0B1F3A"/>
  <path d="M140 320C210 280 260 220 340 220C420 220 470 310 540 320" stroke="#F8A22F" stroke-width="8" stroke-linecap="round"/>
  <path d="M140 280C210 240 250 180 320 180C390 180 430 260 500 280" stroke="#5B4BFF" stroke-width="8" stroke-linecap="round" stroke-opacity="0.7"/>
  <circle cx="220" cy="260" r="14" fill="#F8A22F"/>
  <circle cx="360" cy="230" r="14" fill="#F8A22F"/>
  <circle cx="480" cy="300" r="14" fill="#F8A22F"/>
  <circle cx="260" cy="210" r="12" fill="#5B4BFF"/>
  <circle cx="420" cy="250" r="12" fill="#5B4BFF"/>
  <circle cx="540" cy="310" r="12" fill="#5B4BFF"/>
  <rect x="160" y="120" width="400" height="26" rx="13" fill="#ffffff" fill-opacity="0.12"/>
</svg>
