<svg width="1080" height="840" viewBox="0 0 1080 840" fill="none" xmlns="http://www.w3.org/2000/svg">
  <defs>
    <linearGradient id="screenGradient" x1="140" y1="110" x2="940" y2="650" gradientUnits="userSpaceOnUse">
      <stop offset="0" stop-color="#5B4BFF"/>
      <stop offset="1" stop-color="#F8A22F"/>
    </linearGradient>
    <linearGradient id="baseGradient" x1="220" y1="720" x2="860" y2="780" gradientUnits="userSpaceOnUse">
      <stop offset="0" stop-color="#0B1F3A" stop-opacity="0.7"/>
      <stop offset="1" stop-color="#5B4BFF" stop-opacity="0.4"/>
    </linearGradient>
    <filter id="shadow" x="120" y="60" width="840" height="640" filterUnits="userSpaceOnUse" color-interpolation-filters="sRGB">
      <feDropShadow dx="0" dy="40" stdDeviation="50" flood-color="rgba(11,31,58,0.25)"/>
    </filter>
  </defs>
  <rect x="120" y="90" width="840" height="560" rx="48" fill="#101B2F" filter="url(#shadow)"/>
  <rect x="160" y="130" width="760" height="480" rx="36" fill="url(#screenGradient)"/>
  <rect x="200" y="170" width="680" height="400" rx="28" fill="#ffffff" fill-opacity="0.12"/>
  <g opacity="0.45">
    <path d="M240 220H840" stroke="#FFFFFF" stroke-opacity="0.35" stroke-width="4" stroke-linecap="round"/>
    <path d="M240 260H740" stroke="#FFFFFF" stroke-opacity="0.28" stroke-width="3" stroke-linecap="round"/>
    <path d="M240 300H800" stroke="#FFFFFF" stroke-opacity="0.28" stroke-width="3" stroke-linecap="round"/>
    <rect x="240" y="340" width="220" height="120" rx="22" fill="#FFFFFF" fill-opacity="0.12"/>
    <rect x="500" y="340" width="260" height="120" rx="22" fill="#FFFFFF" fill-opacity="0.12"/>
  </g>
  <rect x="200" y="620" width="680" height="32" rx="16" fill="#101B2F"/>
  <path d="M120 682C120 669.85 129.85 660 142 660H938C950.15 660 960 669.85 960 682C960 708.196 938.196 730 912 730H168C141.804 730 120 708.196 120 682Z" fill="url(#baseGradient)"/>
  <rect x="320" y="700" width="440" height="28" rx="14" fill="#FFFFFF" fill-opacity="0.12"/>
</svg>
